<svg version="1.1" id="Layer_1" xmlns="http://www.w3.org/2000/svg" xmlns:xlink="http://www.w3.org/1999/xlink" x="0px" y="0px"
	 width="100%" viewBox="0 0 148 148" enable-background="new 0 0 148 148" xml:space="preserve">
<path fill="#F9FBFD" opacity="1.000000" stroke="none" 
	d="
M91.000000,149.000000 
	C60.691879,149.000000 30.883757,149.000000 1.037817,149.000000 
	C1.037817,99.733597 1.037817,50.467148 1.037817,1.100353 
	C50.224560,1.100353 99.449394,1.100353 148.837112,1.100353 
	C148.837112,50.332897 148.837112,99.666405 148.837112,149.000000 
	C129.800842,149.000000 110.650421,149.000000 91.000000,149.000000 
M9.004349,25.982683 
	C9.004349,25.982683 8.961642,25.958410 8.553289,26.538837 
	C8.371411,27.694056 8.189533,28.849272 7.858460,30.409227 
	C7.858460,30.409227 7.902699,30.838312 7.655682,31.146034 
	C7.536049,31.422180 7.583752,31.665487 7.534136,32.791260 
	C7.483514,43.100643 7.371274,53.410175 7.395957,63.719376 
	C7.438548,81.507759 7.566246,99.295937 7.415161,117.584549 
	C7.580999,118.105064 7.746838,118.625572 7.895402,119.924797 
	C9.625966,129.455811 14.766235,136.311096 24.272327,140.670731 
	C26.183977,141.112122 28.095627,141.553497 30.411928,142.135101 
	C30.411928,142.135101 30.838076,142.092697 31.596695,142.455200 
	C32.252220,142.545364 32.907669,142.713776 33.563282,142.714417 
	C60.804523,142.740631 88.045784,142.760925 115.287010,142.736755 
	C116.584320,142.735596 117.881271,142.324432 119.939194,142.116501 
	C133.779739,139.318008 142.333603,129.177139 142.388641,115.031570 
	C142.491669,88.544701 142.471664,62.057011 142.399841,35.569946 
	C142.354645,18.903130 131.228897,7.748669 114.526978,7.584369 
	C102.533882,7.466390 90.538742,7.553484 78.544518,7.553127 
	C64.051491,7.552696 49.557667,7.463457 35.065689,7.587766 
	C23.334587,7.688392 14.701466,12.846947 9.409193,24.213142 
	C9.258300,24.802143 9.107406,25.391144 9.004349,25.982683 
z"/>
<path fill="#0D67C3" opacity="1.000000" stroke="none" 
	d="
M7.658233,117.084198 
	C7.566246,99.295937 7.438548,81.507759 7.395957,63.719376 
	C7.371274,53.410175 7.483514,43.100643 7.759533,32.174152 
	C8.060870,31.305651 8.033459,31.066072 7.902699,30.838312 
	C7.902699,30.838312 7.858460,30.409227 8.197617,29.962309 
	C8.678395,28.329731 8.820019,27.144070 8.961642,25.958410 
	C8.961642,25.958410 9.004349,25.982683 9.218699,25.774643 
	C9.582890,24.979231 9.732729,24.391857 9.882567,23.804483 
	C14.701466,12.846947 23.334587,7.688392 35.065689,7.587766 
	C49.557667,7.463457 64.051491,7.552696 78.544518,7.553127 
	C90.538742,7.553484 102.533882,7.466390 114.526978,7.584369 
	C131.228897,7.748669 142.354645,18.903130 142.399841,35.569946 
	C142.471664,62.057011 142.491669,88.544701 142.388641,115.031570 
	C142.333603,129.177139 133.779739,139.318008 119.081451,142.032898 
	C89.095169,141.997086 59.966621,142.044891 30.838076,142.092697 
	C30.838076,142.092697 30.411928,142.135101 29.974228,141.786835 
	C27.611219,141.006348 25.685915,140.574127 23.760609,140.141891 
	C14.766235,136.311096 9.625966,129.455811 7.971900,119.271889 
	C7.918342,118.107384 7.788288,117.595795 7.658233,117.084198 
M52.691914,61.592751 
	C52.370071,61.414402 52.048233,61.236053 51.361435,61.200573 
	C51.361435,61.200573 51.001804,61.044788 50.828972,60.253361 
	C46.765369,58.731091 42.706886,57.285038 38.681190,61.205513 
	C38.681190,61.205513 38.348206,61.085217 37.742214,61.271488 
	C37.446453,61.564590 37.150692,61.857693 36.577999,62.243206 
	C36.577999,62.243206 36.494911,62.615990 36.494911,62.615990 
	C36.494911,62.615990 36.839012,62.834908 36.950317,63.645390 
	C36.908268,64.461609 36.866219,65.277832 36.055828,66.258743 
	C35.708225,66.949028 35.060863,67.637833 35.057438,68.329826 
	C34.993656,81.210693 34.966774,94.092285 35.082066,106.972389 
	C35.090858,107.954956 36.219967,108.927498 36.972145,110.451195 
	C37.186047,110.958282 37.399948,111.465370 37.873058,111.948158 
	C37.873058,111.948158 37.960003,112.193558 38.212395,112.943283 
	C42.854309,113.160255 47.495552,113.404205 52.139992,113.519302 
	C52.387482,113.525436 52.661900,112.445007 52.981106,111.950668 
	C52.981106,111.950668 52.889950,111.988319 53.531834,111.441071 
	C53.684532,110.804764 53.969330,110.168716 53.970551,109.532120 
	C53.998936,94.742340 54.017624,79.952415 53.955357,65.162872 
	C53.950924,64.109520 53.310738,63.058849 53.013588,62.027550 
	C53.013588,62.027550 52.983574,62.069660 52.691914,61.592751 
M61.778435,61.928902 
	C61.778435,78.501381 61.778435,95.073860 61.778435,111.770569 
	C62.571190,111.907448 63.202145,112.113441 63.831768,112.109467 
	C68.150665,112.082207 72.469284,112.010963 77.472084,111.459694 
	C77.648468,105.689964 77.973297,99.919502 77.944763,94.150787 
	C77.928017,90.766068 77.348778,87.384140 76.897736,83.259888 
	C77.790558,78.520241 80.652344,75.657043 85.364197,74.913452 
	C89.274323,74.296394 92.922852,74.808670 95.183434,79.260513 
	C95.305496,79.537140 95.488922,79.764198 96.057083,80.319221 
	C96.057083,80.319221 96.051918,80.816299 96.039055,81.780563 
	C96.025230,90.333405 95.956367,98.886833 96.049049,107.438522 
	C96.065460,108.952522 96.755196,110.459213 98.047646,112.074326 
	C102.628822,112.074326 107.209991,112.074326 112.015068,112.074326 
	C112.015068,99.603958 112.324799,87.681793 111.904289,75.785431 
	C111.631805,68.076660 104.576614,61.148266 96.849251,61.159256 
	C90.504288,61.168278 84.161400,62.640736 77.139702,63.552567 
	C77.167519,63.600788 76.523903,62.484940 75.822914,60.524109 
	C71.626144,60.076653 67.432899,59.581104 63.225937,59.272858 
	C62.888618,59.248146 62.456730,60.514183 61.778435,61.928902 
M36.056854,44.591473 
	C37.043056,52.087212 42.765472,56.049076 48.707481,53.243782 
	C52.961327,51.235493 54.903637,47.716999 53.994595,43.112019 
	C53.138214,38.773808 50.307724,36.176235 45.753288,35.837837 
	C40.761204,35.466930 37.900078,37.861038 36.056854,44.591473 
z"/>
<path fill="#3E81C8" opacity="1.000000" stroke="none" 
	d="
M31.217384,142.273956 
	C59.966621,142.044891 89.095169,141.997086 118.701050,142.026749 
	C117.881271,142.324432 116.584320,142.735596 115.287010,142.736755 
	C88.045784,142.760925 60.804523,142.740631 33.563282,142.714417 
	C32.907669,142.713776 32.252220,142.545364 31.217384,142.273956 
z"/>
<path fill="#3E81C8" opacity="1.000000" stroke="none" 
	d="
M24.016468,140.406311 
	C25.685915,140.574127 27.611219,141.006348 29.771900,141.716736 
	C28.095627,141.553497 26.183977,141.112122 24.016468,140.406311 
z"/>
<path fill="#3C80C8" opacity="1.000000" stroke="none" 
	d="
M8.757465,26.248623 
	C8.820019,27.144070 8.678395,28.329731 8.272214,29.759941 
	C8.189533,28.849272 8.371411,27.694056 8.757465,26.248623 
z"/>
<path fill="#3C80C8" opacity="1.000000" stroke="none" 
	d="
M9.645880,24.008812 
	C9.732729,24.391857 9.582890,24.979231 9.194781,25.773375 
	C9.107406,25.391144 9.258300,24.802143 9.645880,24.008812 
z"/>
<path fill="#3C80C8" opacity="1.000000" stroke="none" 
	d="
M7.536697,117.334373 
	C7.788288,117.595795 7.918342,118.107384 7.980536,118.882538 
	C7.746838,118.625572 7.580999,118.105064 7.536697,117.334373 
z"/>
<path fill="#3C80C8" opacity="1.000000" stroke="none" 
	d="
M7.779190,30.992172 
	C8.033459,31.066072 8.060870,31.305651 7.891860,31.716501 
	C7.583752,31.665487 7.536049,31.422180 7.779190,30.992172 
z"/>
<path fill="#FBFCFD" opacity="1.000000" stroke="none" 
	d="
M95.037788,78.842781 
	C92.922852,74.808670 89.274323,74.296394 85.364197,74.913452 
	C80.652344,75.657043 77.790558,78.520241 76.867271,84.091431 
	C76.820534,93.933273 76.804260,102.943581 76.787994,111.953880 
	C72.469284,112.010963 68.150665,112.082207 63.831768,112.109467 
	C63.202145,112.113441 62.571190,111.907448 61.778435,111.770569 
	C61.778435,95.073860 61.778435,78.501381 62.381451,61.589958 
	C67.283073,61.290375 71.581673,61.329731 75.880280,61.369087 
	C76.523903,62.484940 77.167519,63.600788 77.139702,63.552567 
	C84.161400,62.640736 90.504288,61.168278 96.849251,61.159256 
	C104.576614,61.148266 111.631805,68.076660 111.904289,75.785431 
	C112.324799,87.681793 112.015068,99.603958 112.015068,112.074326 
	C107.209991,112.074326 102.628822,112.074326 97.579407,111.555321 
	C97.108604,104.209351 97.214577,97.379868 97.056175,90.556519 
	C96.980659,87.303757 96.402435,84.062675 96.051918,80.816299 
	C96.051918,80.816299 96.057083,80.319221 95.866745,79.903221 
	C95.524323,79.212166 95.311447,78.997353 95.037788,78.842781 
z"/>
<path fill="#FAFCFD" opacity="1.000000" stroke="none" 
	d="
M38.348206,61.085217 
	C38.348206,61.085217 38.681190,61.205513 39.292610,61.220146 
	C43.603287,61.171452 47.302547,61.108116 51.001804,61.044785 
	C51.001804,61.044788 51.361435,61.200573 51.749779,61.303997 
	C52.419941,61.628166 52.701759,61.848911 52.983574,62.069660 
	C52.983574,62.069660 53.013588,62.027550 52.953102,62.484299 
	C52.891727,79.290138 52.890839,95.639229 52.889950,111.988319 
	C52.889950,111.988319 52.981106,111.950668 52.500854,112.011032 
	C47.333740,112.112122 42.646870,112.152840 37.960003,112.193558 
	C37.960003,112.193558 37.873058,111.948158 37.714928,111.498520 
	C37.552765,96.159279 37.521984,81.269562 37.580158,66.380203 
	C37.587059,64.614243 38.080368,62.850166 38.348206,61.085217 
z"/>
<path fill="#F9FBFC" opacity="1.000000" stroke="none" 
	d="
M36.074989,44.194397 
	C37.900078,37.861038 40.761204,35.466930 45.753288,35.837837 
	C50.307724,36.176235 53.138214,38.773808 53.994595,43.112019 
	C54.903637,47.716999 52.961327,51.235493 48.707481,53.243782 
	C42.765472,56.049076 37.043056,52.087212 36.074989,44.194397 
z"/>
<path fill="#005FC1" opacity="1.000000" stroke="none" 
	d="
M36.828327,109.904701 
	C36.219967,108.927498 35.090858,107.954956 35.082066,106.972389 
	C34.966774,94.092285 34.993656,81.210693 35.057438,68.329826 
	C35.060863,67.637833 35.708225,66.949028 36.494797,66.633118 
	C36.898621,81.306564 36.863476,95.605629 36.828327,109.904701 
z"/>
<path fill="#0563C2" opacity="1.000000" stroke="none" 
	d="
M36.900238,110.177948 
	C36.863476,95.605629 36.898621,81.306564 36.878971,66.550774 
	C36.866219,65.277832 36.908268,64.461609 36.924026,63.070549 
	C36.897732,62.495712 36.854931,62.150795 36.854931,62.150795 
	C37.150692,61.857693 37.446453,61.564590 38.045212,61.178352 
	C38.080368,62.850166 37.587059,64.614243 37.580158,66.380203 
	C37.521984,81.269562 37.552765,96.159279 37.585327,111.510666 
	C37.399948,111.465370 37.186047,110.958282 36.900238,110.177948 
z"/>
<path fill="#0054BB" opacity="1.000000" stroke="none" 
	d="
M53.210892,111.714691 
	C52.890839,95.639229 52.891727,79.290138 52.929390,62.473991 
	C53.310738,63.058849 53.950924,64.109520 53.955357,65.162872 
	C54.017624,79.952415 53.998936,94.742340 53.970551,109.532120 
	C53.969330,110.168716 53.684532,110.804764 53.210892,111.714691 
z"/>
<path fill="#0356BB" opacity="1.000000" stroke="none" 
	d="
M96.045486,81.298431 
	C96.402435,84.062675 96.980659,87.303757 97.056175,90.556519 
	C97.214577,97.379868 97.108604,104.209351 97.122589,111.502800 
	C96.755196,110.459213 96.065460,108.952522 96.049049,107.438522 
	C95.956367,98.886833 96.025230,90.333405 96.045486,81.298431 
z"/>
<path fill="#0563C2" opacity="1.000000" stroke="none" 
	d="
M38.086197,112.568420 
	C42.646870,112.152840 47.333740,112.112122 52.472195,111.970901 
	C52.661900,112.445007 52.387482,113.525436 52.139992,113.519302 
	C47.495552,113.404205 42.854309,113.160255 38.086197,112.568420 
z"/>
<path fill="#0061C1" opacity="1.000000" stroke="none" 
	d="
M75.851593,60.946598 
	C71.581673,61.329731 67.283073,61.290375 62.526627,61.215706 
	C62.456730,60.514183 62.888618,59.248146 63.225937,59.272858 
	C67.432899,59.581104 71.626144,60.076653 75.851593,60.946598 
z"/>
<path fill="#0054BB" opacity="1.000000" stroke="none" 
	d="
M77.130035,111.706787 
	C76.804260,102.943581 76.820534,93.933273 76.929680,84.461960 
	C77.348778,87.384140 77.928017,90.766068 77.944763,94.150787 
	C77.973297,99.919502 77.648468,105.689964 77.130035,111.706787 
z"/>
<path fill="#0563C2" opacity="1.000000" stroke="none" 
	d="
M50.915390,60.649071 
	C47.302547,61.108116 43.603287,61.171452 39.451073,61.141235 
	C42.706886,57.285038 46.765369,58.731091 50.915390,60.649071 
z"/>
<path fill="#0563C2" opacity="1.000000" stroke="none" 
	d="
M52.837746,61.831207 
	C52.701759,61.848911 52.419941,61.628166 51.932259,61.232563 
	C52.048233,61.236053 52.370071,61.414402 52.837746,61.831207 
z"/>
<path fill="#005FC1" opacity="1.000000" stroke="none" 
	d="
M36.716465,62.196999 
	C36.854931,62.150795 36.897732,62.495712 36.868370,62.665310 
	C36.839012,62.834908 36.494911,62.615990 36.494911,62.615990 
	C36.494911,62.615990 36.577999,62.243206 36.716465,62.196999 
z"/>
<path fill="#0356BB" opacity="1.000000" stroke="none" 
	d="
M95.110611,79.051651 
	C95.311447,78.997353 95.524323,79.212166 95.705063,79.714447 
	C95.488922,79.764198 95.305496,79.537140 95.110611,79.051651 
z"/>
</svg>